<svg width="80" height="80" viewBox="0 0 80 80" fill="none" xmlns="http://www.w3.org/2000/svg">
<circle cx="40" cy="40" r="40" fill="#040422"/>
<path d="M27.8304 39.7971L32.954 38.4041C33.1909 38.3659 33.4253 38.3957 33.6572 38.4933C33.9153 38.5868 34.0614 38.7388 34.0953 38.9494C34.1293 39.1601 33.9131 39.411 33.4468 39.7022C31.3754 40.9274 29.4972 41.6758 27.8123 41.9473C26.1273 42.2189 24.6068 42.0858 23.2506 41.5481C21.9165 40.9798 21.1286 39.9453 20.8867 38.4447C20.5685 36.4701 21.3594 34.5059 23.2594 32.5521C25.1594 30.5982 27.6232 28.9586 30.6509 27.6333C33.6786 26.308 36.6931 25.4035 39.6944 24.9198C42.6956 24.4361 45.2807 24.3031 47.4497 24.5208C49.6407 24.7079 51.5204 25.3098 53.0888 26.3265C54.6572 27.3433 55.5857 28.7467 55.8742 30.537C56.0694 31.748 55.5385 33.0626 54.2814 34.4806C53.0465 35.8682 51.5406 37.0832 49.7639 38.1259C48.0092 39.138 46.247 39.9352 44.4771 40.5175C44.0286 40.7519 43.8172 40.948 43.8426 41.106C43.8766 41.3166 45.7154 43.0055 49.3591 46.1728C53.0249 49.3095 54.9129 51.2201 55.0232 51.9046C55.1336 52.5891 54.8252 53.2735 54.0982 53.9579C53.4017 54.6644 52.5533 55.0983 51.5528 55.2595C50.5787 55.4165 49.6756 55.427 48.8433 55.291C48.0153 55.1814 47.1772 54.9248 46.3288 54.5213C45.5068 54.1136 44.768 53.7194 44.1125 53.3389C43.4569 52.9584 42.7079 52.4173 41.8656 51.7157C41.0453 50.9836 40.4301 50.4345 40.02 50.0684C38.5891 48.7324 37.5315 47.7008 36.8471 46.9738C34.4 51.2308 33.0638 53.4989 32.8388 53.7783C32.6358 54.0271 32.479 54.2279 32.3686 54.3808C32.254 54.5073 32.1635 54.6164 32.0973 54.7081C31.9206 54.9527 31.6743 55.1004 31.3584 55.1513C31.0424 55.2022 30.6472 54.9283 30.1725 54.3295C30.249 53.9661 30.8126 52.6868 31.8634 50.4916C32.9142 48.2965 33.7334 46.7599 34.3212 45.8818C34.5828 45.3264 34.7031 44.9829 34.6818 44.8513C34.6606 44.7197 34.4751 44.574 34.1252 44.4143C33.5308 44.0779 33.1954 43.6728 33.119 43.1989C33.0384 42.6987 33.3561 42.3234 34.072 42.0729L37.0963 40.9778C39.0134 37.4545 40.1818 35.4025 40.6014 34.8217C41.021 34.2408 41.4809 33.9101 41.9811 33.8295C42.4813 33.7489 42.7696 33.9455 42.846 34.4194C42.9012 34.7616 42.7117 35.3459 42.2776 36.1721L40.569 39.6483C40.8059 39.6101 41.9087 39.1623 43.8774 38.3048C45.8723 37.443 47.9145 36.3711 50.0037 35.089C52.093 33.8069 53.074 32.771 52.9467 31.9812C52.76 30.8228 51.0344 30.5067 47.7699 31.0328C45.3478 31.4231 42.5006 32.1926 39.2284 33.3413C35.9824 34.4856 33.2053 35.6895 30.8969 36.9529C28.6106 38.1857 27.5184 39.1181 27.6202 39.7499C27.6287 39.8026 27.6987 39.8183 27.8304 39.7971Z" fill="white"/>
</svg>
